<?xml version="1.0" encoding="UTF-8" standalone="no"?>
<svg
   version="1.1"
   id="danger-15"
   width="15px"
   height="15px"
   viewBox="0 0 15 15"
   sodipodi:docname="dificulty.svg"
   inkscape:version="1.2.1 (9c6d41e410, 2022-07-14)"
   xmlns:inkscape="http://www.inkscape.org/namespaces/inkscape"
   xmlns:sodipodi="http://sodipodi.sourceforge.net/DTD/sodipodi-0.dtd"
   xmlns="http://www.w3.org/2000/svg"
   xmlns:svg="http://www.w3.org/2000/svg">
  <defs
     id="defs1264" />
  <sodipodi:namedview
     id="namedview1262"
     pagecolor="#ffffff"
     bordercolor="#666666"
     borderopacity="1.0"
     inkscape:showpageshadow="2"
     inkscape:pageopacity="0.0"
     inkscape:pagecheckerboard="0"
     inkscape:deskcolor="#d1d1d1"
     showgrid="false"
     inkscape:zoom="40.305087"
     inkscape:cx="9.5521442"
     inkscape:cy="8.3612276"
     inkscape:window-width="1920"
     inkscape:window-height="1009"
     inkscape:window-x="1912"
     inkscape:window-y="-8"
     inkscape:window-maximized="1"
     inkscape:current-layer="danger-15" />
  <path
     d="m 13.523338,13.808957 c -0.06976,0.170357 -0.24404,0.282319 -0.43778,0.281001 -0.05542,0.0094 -0.11224,0.0094 -0.167661,0 L 7.52481,11.947319 2.1224084,14.089958 c -0.2395687,0.08825 -0.5096888,-0.02336 -0.6032062,-0.249213 -7.452e-4,-0.0018 -0.0015,-0.0036 -0.00224,-0.0054 -0.12025,-0.214351 -0.033346,-0.480074 0.1941139,-0.593352 0.024311,-0.01212 0.049739,-0.02222 0.076006,-0.03012 L 6.3046123,11.455566 1.7870869,9.6993052 C 1.5409982,9.6287913 1.4021191,9.3835294 1.4769144,9.1515273 1.5517099,8.9195251 1.8118633,8.7885959 2.057952,8.8591098 c 0.022076,0.00632 0.043593,0.014226 0.064457,0.023534 l 5.402401,2.1162942 5.4024,-2.1162943 c 0.232304,-0.1040585 0.510156,-0.010889 0.620532,0.2081169 0.110377,0.2190058 0.01155,0.4809522 -0.220753,0.5850107 -0.02087,0.0094 -0.04238,0.017211 -0.06446,0.023534 l -4.526836,1.7562607 4.517525,1.756262 c 0.242829,0.07991 0.370996,0.330265 0.286327,0.559193 -0.0047,0.01291 -0.01017,0.02555 -0.01621,0.03794 z M 11.716327,4.6324911 v 0.3951588 c -0.002,0.1869541 -0.06725,0.3684637 -0.186289,0.5180971 -0.520307,0.5429482 -1.080573,1.0505956 -1.6766065,1.5191661 V 8.0835447 C 9.8548697,8.2661959 9.7360688,8.4304942 9.5553679,8.4962662 L 7.5434389,9.2602399 H 7.4782375 L 5.4569941,8.4962662 C 5.2908237,8.4196932 5.1884575,8.2577659 5.1961885,8.0835447 V 7.0649131 C 4.5933551,6.5973085 4.0268481,6.0895734 3.5009522,5.545747 3.3885263,5.3940061 3.3298451,5.2126721 3.3332915,5.0276499 V 4.6324911 C 3.4887502,2.6845338 5.1006219,1.120583 7.161545,0.91799828 h 0.3353215 v 0 h 0.363265 C 9.9337219,1.1051279 11.562453,2.6739962 11.716327,4.6324911 Z m -5.5886899,-0.20197 c 0,-0.4849916 -0.4170096,-0.8781307 -0.9314486,-0.8781307 -0.5144389,0 -0.9314485,0.3931391 -0.9314485,0.8781307 0,0.4849915 0.4170096,0.8781306 0.9314485,0.8781306 0.514439,0 0.9314486,-0.3931391 0.9314486,-0.8781306 z m 0.9314486,2.634392 c 0,-0.2424519 -0.2085513,-0.4390653 -0.4657243,-0.4390653 -0.257173,0 -0.4657243,0.1966134 -0.4657243,0.4390653 v 0.4390654 c 0,0.2424519 0.2085513,0.4390653 0.4657243,0.4390653 0.257173,0 0.4657243,-0.1966134 0.4657243,-0.4390653 z m 1.862897,0 c 0,-0.2424519 -0.2085512,-0.4390653 -0.4657241,-0.4390653 -0.257173,0 -0.4657244,0.1966134 -0.4657244,0.4390653 v 0.4390654 c 0,0.2424519 0.2085514,0.4390653 0.4657244,0.4390653 0.2571729,0 0.4657241,-0.1966134 0.4657241,-0.4390653 z m 1.8628963,-2.634392 c 0,-0.4849916 -0.417008,-0.8781307 -0.9314475,-0.8781307 -0.5144392,0 -0.9314488,0.3931391 -0.9314488,0.8781307 0,0.4849915 0.4170096,0.8781306 0.9314488,0.8781306 0.5144395,0 0.9314475,-0.3931391 0.9314475,-0.8781306 z"
     id="path1259"
     style="stroke-width:0.999998;fill:#f5deb3;fill-opacity:1" />
</svg>
